<mxfile host="Electron" agent="Mozilla/5.0 (Windows NT 10.0; Win64; x64) AppleWebKit/537.36 (KHTML, like Gecko) draw.io/26.0.16 Chrome/132.0.6834.196 Electron/34.2.0 Safari/537.36" version="26.0.16">
  <diagram name="第 1 页" id="8fufjQIlFhttLBg1zRAA">
    <mxGraphModel dx="826" dy="599" grid="1" gridSize="10" guides="1" tooltips="1" connect="1" arrows="1" fold="1" page="1" pageScale="1" pageWidth="827" pageHeight="1169" math="0" shadow="0">
      <root>
        <mxCell id="0" />
        <mxCell id="1" parent="0" />
        <mxCell id="LdRWsdQSR_k25AwejQxN-10" style="edgeStyle=orthogonalEdgeStyle;rounded=0;orthogonalLoop=1;jettySize=auto;html=1;exitX=1;exitY=0.5;exitDx=0;exitDy=0;entryX=0;entryY=0.5;entryDx=0;entryDy=0;" edge="1" parent="1" source="LdRWsdQSR_k25AwejQxN-1" target="LdRWsdQSR_k25AwejQxN-9">
          <mxGeometry relative="1" as="geometry" />
        </mxCell>
        <mxCell id="LdRWsdQSR_k25AwejQxN-1" value="get_options" style="rounded=1;whiteSpace=wrap;html=1;arcSize=11;" vertex="1" parent="1">
          <mxGeometry x="160" y="160" width="110" height="40" as="geometry" />
        </mxCell>
        <mxCell id="LdRWsdQSR_k25AwejQxN-2" value="" style="whiteSpace=wrap;html=1;shape=mxgraph.basic.document" vertex="1" parent="1">
          <mxGeometry x="200" y="100" width="30" height="40" as="geometry" />
        </mxCell>
        <mxCell id="LdRWsdQSR_k25AwejQxN-3" value="&lt;font style=&quot;font-size: 8px;&quot;&gt;.jiaconf&lt;/font&gt;" style="text;html=1;align=center;verticalAlign=middle;resizable=0;points=[];autosize=1;strokeColor=none;fillColor=none;" vertex="1" parent="1">
          <mxGeometry x="190" y="105" width="50" height="30" as="geometry" />
        </mxCell>
        <mxCell id="LdRWsdQSR_k25AwejQxN-5" style="edgeStyle=orthogonalEdgeStyle;rounded=0;orthogonalLoop=1;jettySize=auto;html=1;exitX=1;exitY=0.5;exitDx=0;exitDy=0;entryX=0;entryY=0.5;entryDx=0;entryDy=0;" edge="1" parent="1" source="LdRWsdQSR_k25AwejQxN-4" target="LdRWsdQSR_k25AwejQxN-1">
          <mxGeometry relative="1" as="geometry" />
        </mxCell>
        <mxCell id="LdRWsdQSR_k25AwejQxN-4" value="init_setting" style="rounded=1;whiteSpace=wrap;html=1;arcSize=11;" vertex="1" parent="1">
          <mxGeometry x="20" y="160" width="110" height="40" as="geometry" />
        </mxCell>
        <mxCell id="LdRWsdQSR_k25AwejQxN-8" value="" style="endArrow=classic;html=1;rounded=0;exitX=0.5;exitY=1;exitDx=0;exitDy=0;exitPerimeter=0;dashed=1;dashPattern=1 2;" edge="1" parent="1" source="LdRWsdQSR_k25AwejQxN-2" target="LdRWsdQSR_k25AwejQxN-1">
          <mxGeometry width="50" height="50" relative="1" as="geometry">
            <mxPoint x="180" y="270" as="sourcePoint" />
            <mxPoint x="230" y="220" as="targetPoint" />
          </mxGeometry>
        </mxCell>
        <mxCell id="LdRWsdQSR_k25AwejQxN-15" style="edgeStyle=orthogonalEdgeStyle;rounded=0;orthogonalLoop=1;jettySize=auto;html=1;exitX=1;exitY=0.5;exitDx=0;exitDy=0;entryX=0;entryY=0.5;entryDx=0;entryDy=0;" edge="1" parent="1" source="LdRWsdQSR_k25AwejQxN-9" target="LdRWsdQSR_k25AwejQxN-14">
          <mxGeometry relative="1" as="geometry" />
        </mxCell>
        <mxCell id="LdRWsdQSR_k25AwejQxN-9" value="get_hosts" style="rounded=1;whiteSpace=wrap;html=1;arcSize=11;" vertex="1" parent="1">
          <mxGeometry x="303.5" y="160" width="110" height="40" as="geometry" />
        </mxCell>
        <mxCell id="LdRWsdQSR_k25AwejQxN-13" style="edgeStyle=orthogonalEdgeStyle;rounded=0;orthogonalLoop=1;jettySize=auto;html=1;exitX=0.5;exitY=1;exitDx=0;exitDy=0;exitPerimeter=0;entryX=0.5;entryY=0;entryDx=0;entryDy=0;dashed=1;dashPattern=1 2;" edge="1" parent="1" source="LdRWsdQSR_k25AwejQxN-11" target="LdRWsdQSR_k25AwejQxN-9">
          <mxGeometry relative="1" as="geometry" />
        </mxCell>
        <mxCell id="LdRWsdQSR_k25AwejQxN-11" value="" style="whiteSpace=wrap;html=1;shape=mxgraph.basic.document" vertex="1" parent="1">
          <mxGeometry x="343.5" y="100" width="30" height="40" as="geometry" />
        </mxCell>
        <mxCell id="LdRWsdQSR_k25AwejQxN-12" value="&lt;font style=&quot;font-size: 8px;&quot;&gt;.jiahosts&lt;/font&gt;" style="text;html=1;align=center;verticalAlign=middle;resizable=0;points=[];autosize=1;strokeColor=none;fillColor=none;" vertex="1" parent="1">
          <mxGeometry x="333.5" y="105" width="50" height="30" as="geometry" />
        </mxCell>
        <mxCell id="LdRWsdQSR_k25AwejQxN-14" value="get_id" style="rounded=1;whiteSpace=wrap;html=1;arcSize=11;" vertex="1" parent="1">
          <mxGeometry x="440" y="160" width="110" height="40" as="geometry" />
        </mxCell>
        <mxCell id="LdRWsdQSR_k25AwejQxN-16" value="&lt;font style=&quot;font-size: 8px;&quot;&gt;&lt;i&gt;解析&lt;/i&gt;&lt;/font&gt;" style="text;html=1;align=center;verticalAlign=middle;resizable=0;points=[];autosize=1;strokeColor=none;fillColor=none;" vertex="1" parent="1">
          <mxGeometry x="210" y="130" width="40" height="30" as="geometry" />
        </mxCell>
        <mxCell id="LdRWsdQSR_k25AwejQxN-17" value="&lt;font style=&quot;font-size: 8px;&quot;&gt;&lt;i&gt;解析&lt;/i&gt;&lt;/font&gt;" style="text;html=1;align=center;verticalAlign=middle;resizable=0;points=[];autosize=1;strokeColor=none;fillColor=none;" vertex="1" parent="1">
          <mxGeometry x="352" y="130" width="40" height="30" as="geometry" />
        </mxCell>
        <mxCell id="LdRWsdQSR_k25AwejQxN-20" value="" style="rounded=0;whiteSpace=wrap;html=1;" vertex="1" parent="1">
          <mxGeometry x="168" y="240" width="320" height="40" as="geometry" />
        </mxCell>
        <mxCell id="LdRWsdQSR_k25AwejQxN-21" value="system_setting 结构" style="text;html=1;align=center;verticalAlign=middle;resizable=0;points=[];autosize=1;strokeColor=none;fillColor=none;" vertex="1" parent="1">
          <mxGeometry x="37" y="245" width="130" height="30" as="geometry" />
        </mxCell>
        <mxCell id="LdRWsdQSR_k25AwejQxN-22" value="" style="endArrow=none;html=1;rounded=0;entryX=0.5;entryY=0;entryDx=0;entryDy=0;exitX=0.5;exitY=1;exitDx=0;exitDy=0;" edge="1" parent="1">
          <mxGeometry width="50" height="50" relative="1" as="geometry">
            <mxPoint x="308" y="280" as="sourcePoint" />
            <mxPoint x="308" y="240" as="targetPoint" />
          </mxGeometry>
        </mxCell>
        <mxCell id="LdRWsdQSR_k25AwejQxN-23" value="" style="endArrow=none;html=1;rounded=0;entryX=0.75;entryY=0;entryDx=0;entryDy=0;exitX=0.75;exitY=1;exitDx=0;exitDy=0;" edge="1" parent="1" source="LdRWsdQSR_k25AwejQxN-20" target="LdRWsdQSR_k25AwejQxN-20">
          <mxGeometry width="50" height="50" relative="1" as="geometry">
            <mxPoint x="318" y="390" as="sourcePoint" />
            <mxPoint x="368" y="340" as="targetPoint" />
          </mxGeometry>
        </mxCell>
        <mxCell id="LdRWsdQSR_k25AwejQxN-24" value="系统配置参数" style="text;html=1;align=center;verticalAlign=middle;resizable=0;points=[];autosize=1;strokeColor=none;fillColor=none;" vertex="1" parent="1">
          <mxGeometry x="186" y="245" width="100" height="30" as="geometry" />
        </mxCell>
        <mxCell id="LdRWsdQSR_k25AwejQxN-25" value="主机信息" style="text;html=1;align=center;verticalAlign=middle;resizable=0;points=[];autosize=1;strokeColor=none;fillColor=none;" vertex="1" parent="1">
          <mxGeometry x="322" y="245" width="70" height="30" as="geometry" />
        </mxCell>
        <mxCell id="LdRWsdQSR_k25AwejQxN-26" value="唯一标识" style="text;html=1;align=center;verticalAlign=middle;resizable=0;points=[];autosize=1;strokeColor=none;fillColor=none;" vertex="1" parent="1">
          <mxGeometry x="410" y="245" width="70" height="30" as="geometry" />
        </mxCell>
        <mxCell id="LdRWsdQSR_k25AwejQxN-30" value="&lt;font style=&quot;font-size: 8px;&quot;&gt;&lt;i&gt;更新&lt;/i&gt;&lt;/font&gt;" style="text;html=1;align=center;verticalAlign=middle;resizable=0;points=[];autosize=1;strokeColor=none;fillColor=none;" vertex="1" parent="1">
          <mxGeometry x="208" y="200" width="40" height="30" as="geometry" />
        </mxCell>
        <mxCell id="LdRWsdQSR_k25AwejQxN-31" style="edgeStyle=orthogonalEdgeStyle;rounded=0;orthogonalLoop=1;jettySize=auto;html=1;exitX=0.5;exitY=1;exitDx=0;exitDy=0;entryX=0.147;entryY=-0.037;entryDx=0;entryDy=0;entryPerimeter=0;dashed=1;dashPattern=1 2;" edge="1" parent="1" source="LdRWsdQSR_k25AwejQxN-1" target="LdRWsdQSR_k25AwejQxN-20">
          <mxGeometry relative="1" as="geometry" />
        </mxCell>
        <mxCell id="LdRWsdQSR_k25AwejQxN-34" style="edgeStyle=orthogonalEdgeStyle;rounded=0;orthogonalLoop=1;jettySize=auto;html=1;exitX=0.5;exitY=1;exitDx=0;exitDy=0;entryX=0.596;entryY=-0.003;entryDx=0;entryDy=0;entryPerimeter=0;dashed=1;dashPattern=1 2;" edge="1" parent="1" source="LdRWsdQSR_k25AwejQxN-9" target="LdRWsdQSR_k25AwejQxN-20">
          <mxGeometry relative="1" as="geometry" />
        </mxCell>
        <mxCell id="LdRWsdQSR_k25AwejQxN-35" value="&lt;span style=&quot;font-size: 8px;&quot;&gt;&lt;i&gt;更新&lt;/i&gt;&lt;/span&gt;" style="text;html=1;align=center;verticalAlign=middle;resizable=0;points=[];autosize=1;strokeColor=none;fillColor=none;" vertex="1" parent="1">
          <mxGeometry x="352" y="200" width="40" height="30" as="geometry" />
        </mxCell>
        <mxCell id="LdRWsdQSR_k25AwejQxN-37" style="edgeStyle=orthogonalEdgeStyle;rounded=0;orthogonalLoop=1;jettySize=auto;html=1;exitX=0.25;exitY=1;exitDx=0;exitDy=0;entryX=0.934;entryY=-0.027;entryDx=0;entryDy=0;entryPerimeter=0;dashed=1;dashPattern=1 2;" edge="1" parent="1" source="LdRWsdQSR_k25AwejQxN-14" target="LdRWsdQSR_k25AwejQxN-20">
          <mxGeometry relative="1" as="geometry" />
        </mxCell>
        <mxCell id="LdRWsdQSR_k25AwejQxN-41" value="&lt;span style=&quot;font-size: 8px;&quot;&gt;&lt;i&gt;更新&lt;/i&gt;&lt;/span&gt;" style="text;html=1;align=center;verticalAlign=middle;resizable=0;points=[];autosize=1;strokeColor=none;fillColor=none;" vertex="1" parent="1">
          <mxGeometry x="460" y="200" width="40" height="30" as="geometry" />
        </mxCell>
      </root>
    </mxGraphModel>
  </diagram>
</mxfile>
